<?xml version="1.0" standalone="no"?>
<!DOCTYPE svg PUBLIC "-//W3C//DTD SVG 20010904//EN"
 "http://www.w3.org/TR/2001/REC-SVG-20010904/DTD/svg10.dtd">
<svg version="1.0" xmlns="http://www.w3.org/2000/svg"
 width="1022.000000pt" height="1022.000000pt" viewBox="0 0 1022.000000 1022.000000"
 preserveAspectRatio="xMidYMid meet">
<metadata>
Created by potrace 1.14, written by Peter Selinger 2001-2017
</metadata>
<g transform="translate(0.000000,1022.000000) scale(0.100000,-0.100000)"
fill="#000000" stroke="none">
<path d="M2850 9260 c0 -5 5 -10 10 -10 6 0 10 5 10 10 0 6 -4 10 -10 10 -5 0
-10 -4 -10 -10z"/>
<path d="M6770 9260 c0 -5 5 -10 10 -10 6 0 10 5 10 10 0 6 -4 10 -10 10 -5 0
-10 -4 -10 -10z"/>
<path d="M2860 9040 l0 -200 -110 0 c-67 0 -110 -4 -110 -10 0 -6 -37 -10 -90
-10 -53 0 -90 -4 -90 -10 0 -6 -27 -10 -60 -10 -33 0 -60 -4 -60 -10 0 -5 -22
-10 -50 -10 -27 0 -50 -4 -50 -10 0 -5 -13 -10 -30 -10 -16 0 -30 -4 -30 -10
0 -5 -9 -10 -20 -10 -11 0 -20 -4 -20 -10 0 -5 -9 -10 -20 -10 -11 0 -20 -4
-20 -10 0 -5 -9 -10 -20 -10 -11 0 -20 -4 -20 -10 0 -5 -7 -10 -15 -10 -19 0
-105 -84 -105 -103 0 -7 -9 -19 -20 -27 -11 -8 -20 -22 -20 -32 0 -10 -4 -18
-10 -18 -5 0 -10 -13 -10 -30 0 -16 -4 -30 -10 -30 -5 0 -10 -9 -10 -20 0 -11
-4 -20 -10 -20 -5 0 -10 -18 -10 -40 0 -22 -4 -40 -10 -40 -5 0 -10 -22 -10
-50 0 -27 -4 -50 -10 -50 -6 0 -10 -43 -10 -110 0 -67 -4 -110 -10 -110 -7 0
-10 -452 -10 -1336 0 -1399 -1 -1364 39 -1364 14 0 221 206 221 220 0 6 63 73
140 150 77 77 140 144 140 150 0 6 54 64 120 130 66 66 120 124 120 130 0 6
54 64 120 130 l120 119 0 856 c0 563 3 855 10 855 6 0 10 30 10 70 0 40 4 70
10 70 6 0 10 27 10 60 0 33 4 60 10 60 6 0 10 14 10 30 0 17 5 30 10 30 6 0
10 9 10 20 0 11 5 20 10 20 6 0 10 9 10 20 0 11 5 20 10 20 6 0 10 9 10 20 0
11 5 20 10 20 6 0 10 7 10 15 0 19 144 165 163 165 7 0 19 9 27 20 8 12 26 20
42 20 15 0 28 5 28 10 0 6 9 10 20 10 11 0 20 5 20 10 0 6 14 10 30 10 17 0
30 5 30 10 0 6 23 10 50 10 28 0 50 5 50 10 0 6 27 10 60 10 33 0 60 4 60 10
0 6 50 10 130 10 80 0 130 4 130 10 0 6 18 10 40 10 l40 0 0 210 0 210 -500 0
-500 0 0 -200z"/>
<path d="M6800 9040 l0 -200 -140 0 c-87 0 -140 -4 -140 -10 0 -6 -27 -10 -60
-10 -33 0 -60 -4 -60 -10 0 -5 -22 -10 -50 -10 -27 0 -50 -4 -50 -10 0 -5 -13
-10 -30 -10 -16 0 -30 -4 -30 -10 0 -5 -13 -10 -30 -10 -16 0 -30 -4 -30 -10
0 -5 -9 -10 -20 -10 -11 0 -20 -4 -20 -10 0 -5 -9 -10 -20 -10 -11 0 -20 -4
-20 -10 0 -5 -8 -10 -18 -10 -10 0 -24 -9 -32 -20 -8 -11 -22 -20 -32 -20 -10
0 -18 -4 -18 -10 0 -5 -7 -10 -16 -10 -9 0 -29 -13 -44 -30 -15 -16 -33 -30
-40 -30 -7 0 -25 -13 -40 -30 -15 -16 -33 -30 -40 -30 -6 0 -38 -27 -70 -60
-32 -33 -64 -60 -69 -60 -14 0 -701 -687 -701 -700 0 -6 -54 -64 -120 -130
-66 -66 -120 -124 -120 -130 0 -6 -76 -87 -170 -180 -93 -93 -170 -174 -170
-180 0 -6 -45 -55 -100 -110 -55 -55 -100 -104 -100 -110 0 -6 -76 -87 -170
-180 -93 -93 -170 -174 -170 -180 0 -6 -54 -64 -120 -130 -66 -66 -120 -124
-120 -130 0 -6 -63 -73 -140 -150 -163 -163 -168 -174 -100 -240 22 -21 40
-44 40 -50 0 -6 18 -29 40 -50 22 -21 40 -44 40 -50 0 -6 18 -29 40 -50 22
-21 40 -44 40 -50 0 -6 23 -33 50 -60 28 -27 50 -54 50 -60 0 -6 18 -29 40
-50 22 -21 40 -44 40 -50 0 -6 23 -33 50 -60 27 -27 50 -54 50 -60 0 -6 23
-33 50 -60 28 -27 50 -54 50 -60 0 -6 23 -33 50 -60 28 -27 50 -54 50 -60 0
-6 18 -29 40 -50 22 -21 40 -44 40 -50 0 -6 23 -33 50 -60 28 -27 50 -54 50
-60 0 -6 18 -29 40 -50 22 -21 40 -44 40 -50 0 -6 18 -29 40 -50 22 -21 40
-44 40 -50 0 -6 27 -38 60 -70 33 -32 60 -64 60 -70 0 -6 18 -29 40 -50 22
-21 40 -44 40 -50 0 -6 18 -29 40 -50 22 -21 40 -44 40 -50 0 -6 22 -33 50
-60 28 -27 50 -54 50 -60 0 -6 23 -33 50 -60 27 -27 50 -54 50 -60 0 -6 18
-29 40 -50 22 -21 40 -44 40 -50 0 -6 23 -33 50 -60 28 -27 50 -54 50 -60 0
-6 23 -33 50 -60 28 -27 50 -54 50 -60 0 -6 18 -29 40 -50 22 -21 40 -44 40
-50 0 -6 18 -29 40 -50 22 -21 40 -44 40 -50 0 -6 27 -38 60 -70 33 -32 60
-64 60 -70 0 -6 18 -29 40 -50 22 -21 40 -44 40 -50 0 -6 23 -33 50 -60 28
-27 50 -54 50 -60 0 -6 18 -29 40 -50 22 -21 40 -44 40 -50 0 -6 18 -29 40
-50 22 -21 40 -44 40 -50 0 -6 27 -38 60 -70 33 -32 60 -64 60 -70 0 -6 18
-29 40 -50 22 -21 40 -44 40 -50 0 -6 23 -33 50 -60 28 -27 50 -54 50 -60 0
-6 18 -29 40 -50 22 -21 40 -44 40 -50 0 -6 23 -33 50 -60 28 -27 50 -54 50
-60 0 -6 18 -29 40 -50 22 -21 40 -43 40 -49 0 -16 247 -261 263 -261 7 0 19
-9 27 -20 8 -11 21 -20 30 -20 9 0 22 -9 30 -20 8 -11 22 -20 32 -20 10 0 18
-4 18 -10 0 -5 9 -10 20 -10 11 0 20 -4 20 -10 0 -5 9 -10 20 -10 11 0 20 -4
20 -10 0 -5 14 -10 30 -10 17 0 30 -4 30 -10 0 -5 9 -10 20 -10 11 0 20 -4 20
-10 0 -5 14 -10 30 -10 17 0 30 -4 30 -10 0 -5 18 -10 40 -10 22 0 40 -4 40
-10 0 -5 18 -10 40 -10 22 0 40 -4 40 -10 0 -6 27 -10 60 -10 33 0 60 -4 60
-10 0 -6 47 -10 120 -10 l120 0 0 -210 0 -210 510 0 510 0 0 220 0 220 -80 0
c-47 0 -80 4 -80 10 0 6 -33 10 -80 10 -47 0 -80 4 -80 10 0 6 -13 10 -30 10
-16 0 -30 5 -30 10 0 6 -22 10 -50 10 -27 0 -50 5 -50 10 0 6 -13 10 -30 10
-16 0 -30 5 -30 10 0 6 -13 10 -30 10 -16 0 -30 5 -30 10 0 6 -9 10 -20 10
-11 0 -20 5 -20 10 0 6 -9 10 -20 10 -11 0 -20 5 -20 10 0 6 -9 10 -20 10 -11
0 -20 5 -20 10 0 6 -8 10 -18 10 -10 0 -24 9 -32 20 -8 11 -21 20 -30 20 -9 0
-22 9 -30 20 -8 11 -20 20 -27 20 -16 0 -343 325 -343 341 0 6 -18 28 -40 49
-22 21 -40 44 -40 50 0 6 -18 29 -40 50 -22 21 -40 44 -40 50 0 6 -22 33 -50
60 -27 27 -50 54 -50 60 0 6 -23 33 -50 60 -28 27 -50 54 -50 60 0 6 -22 33
-50 60 -27 27 -50 54 -50 60 0 6 -18 29 -40 50 -22 21 -40 44 -40 50 0 6 -22
33 -50 60 -27 27 -50 54 -50 60 0 6 -18 29 -40 50 -22 21 -40 44 -40 50 0 6
-22 33 -50 60 -27 27 -50 54 -50 60 0 6 -22 33 -50 60 -27 27 -50 54 -50 60 0
6 -18 29 -40 50 -22 21 -40 44 -40 50 0 6 -18 29 -40 50 -22 21 -40 44 -40 50
0 6 -22 33 -50 60 -27 27 -50 54 -50 60 0 6 -18 29 -40 50 -22 21 -40 44 -40
50 0 6 -18 29 -40 50 -22 21 -40 44 -40 50 0 6 -27 38 -60 70 -33 32 -60 64
-60 70 0 6 -22 33 -50 60 -27 27 -50 54 -50 60 0 6 -18 29 -40 50 -22 21 -40
44 -40 50 0 6 -18 29 -40 50 -22 21 -40 44 -40 50 0 6 -22 33 -50 60 -27 27
-50 54 -50 60 0 6 -22 33 -50 60 -27 27 -50 54 -50 60 0 6 -22 33 -50 60 -27
27 -50 54 -50 60 0 6 -18 29 -40 50 -22 21 -40 44 -40 50 0 6 -18 29 -40 50
-22 21 -40 44 -40 50 0 6 -27 38 -60 70 -33 32 -60 64 -60 70 0 6 -18 29 -40
50 -22 21 -40 44 -40 50 0 6 -22 33 -50 60 -27 27 -50 54 -50 60 0 6 -18 29
-40 50 -22 21 -40 44 -40 50 0 6 -18 29 -40 50 -22 21 -40 44 -40 50 0 6 -22
33 -50 60 -27 27 -50 54 -50 60 0 6 -22 33 -50 60 -27 27 -50 54 -50 60 0 6
-18 29 -40 50 -22 21 -40 44 -40 51 0 6 -9 20 -21 30 -20 18 -18 20 250 288
149 149 271 275 271 281 0 6 86 96 190 200 105 104 190 194 190 200 0 6 104
114 230 240 127 126 230 234 230 240 0 6 99 109 220 230 121 121 220 224 220
230 0 13 347 360 360 360 6 0 60 50 120 110 60 61 114 110 120 110 6 0 33 23
60 50 27 28 54 50 60 50 7 0 25 14 40 30 15 17 34 30 42 30 7 0 20 9 28 20 8
11 21 20 30 20 9 0 22 9 30 20 8 11 22 20 32 20 10 0 18 5 18 10 0 6 9 10 20
10 11 0 20 5 20 10 0 6 9 10 20 10 11 0 20 5 20 10 0 6 9 10 20 10 11 0 20 5
20 10 0 6 14 10 30 10 17 0 30 5 30 10 0 6 14 10 30 10 17 0 30 5 30 10 0 6
18 10 40 10 22 0 40 5 40 10 0 6 37 10 90 10 53 0 90 4 90 10 0 6 37 10 90 10
l90 0 0 210 0 210 -500 0 -500 0 0 -200z"/>
<path d="M2290 8860 c0 -5 5 -10 10 -10 6 0 10 5 10 10 0 6 -4 10 -10 10 -5 0
-10 -4 -10 -10z"/>
<path d="M6290 8860 c0 -5 5 -10 10 -10 6 0 10 5 10 10 0 6 -4 10 -10 10 -5 0
-10 -4 -10 -10z"/>
<path d="M2130 8780 c0 -5 5 -10 10 -10 6 0 10 5 10 10 0 6 -4 10 -10 10 -5 0
-10 -4 -10 -10z"/>
<path d="M6130 8780 c0 -5 5 -10 10 -10 6 0 10 5 10 10 0 6 -4 10 -10 10 -5 0
-10 -4 -10 -10z"/>
<path d="M1970 8700 c0 -5 5 -10 10 -10 6 0 10 5 10 10 0 6 -4 10 -10 10 -5 0
-10 -4 -10 -10z"/>
<path d="M5970 8700 c0 -5 5 -10 10 -10 6 0 10 5 10 10 0 6 -4 10 -10 10 -5 0
-10 -4 -10 -10z"/>
<path d="M1890 8620 c0 -5 5 -10 10 -10 6 0 10 5 10 10 0 6 -4 10 -10 10 -5 0
-10 -4 -10 -10z"/>
<path d="M5890 8620 c0 -5 5 -10 10 -10 6 0 10 5 10 10 0 6 -4 10 -10 10 -5 0
-10 -4 -10 -10z"/>
<path d="M5730 8540 c0 -5 5 -10 10 -10 6 0 10 5 10 10 0 6 -4 10 -10 10 -5 0
-10 -4 -10 -10z"/>
<path d="M1810 8460 c0 -5 5 -10 10 -10 6 0 10 5 10 10 0 6 -4 10 -10 10 -5 0
-10 -4 -10 -10z"/>
<path d="M5650 8460 c0 -5 5 -10 10 -10 6 0 10 5 10 10 0 6 -4 10 -10 10 -5 0
-10 -4 -10 -10z"/>
<path d="M5570 8380 c0 -5 5 -10 10 -10 6 0 10 5 10 10 0 6 -4 10 -10 10 -5 0
-10 -4 -10 -10z"/>
<path d="M5490 8300 c0 -5 5 -10 10 -10 6 0 10 5 10 10 0 6 -4 10 -10 10 -5 0
-10 -4 -10 -10z"/>
<path d="M1730 8220 c0 -5 5 -10 10 -10 6 0 10 5 10 10 0 6 -4 10 -10 10 -5 0
-10 -4 -10 -10z"/>
<path d="M5410 8220 c0 -5 5 -10 10 -10 6 0 10 5 10 10 0 6 -4 10 -10 10 -5 0
-10 -4 -10 -10z"/>
<path d="M5330 8140 c0 -5 5 -10 10 -10 6 0 10 5 10 10 0 6 -4 10 -10 10 -5 0
-10 -4 -10 -10z"/>
<path d="M5250 8060 c0 -5 5 -10 10 -10 6 0 10 5 10 10 0 6 -4 10 -10 10 -5 0
-10 -4 -10 -10z"/>
<path d="M5170 7980 c0 -5 5 -10 10 -10 6 0 10 5 10 10 0 6 -4 10 -10 10 -5 0
-10 -4 -10 -10z"/>
<path d="M5090 7900 c0 -5 5 -10 10 -10 6 0 10 5 10 10 0 6 -4 10 -10 10 -5 0
-10 -4 -10 -10z"/>
<path d="M5010 7820 c0 -5 5 -10 10 -10 6 0 10 5 10 10 0 6 -4 10 -10 10 -5 0
-10 -4 -10 -10z"/>
<path d="M4930 7740 c0 -5 5 -10 10 -10 6 0 10 5 10 10 0 6 -4 10 -10 10 -5 0
-10 -4 -10 -10z"/>
<path d="M4850 7660 c0 -5 5 -10 10 -10 6 0 10 5 10 10 0 6 -4 10 -10 10 -5 0
-10 -4 -10 -10z"/>
<path d="M4770 7580 c0 -5 5 -10 10 -10 6 0 10 5 10 10 0 6 -4 10 -10 10 -5 0
-10 -4 -10 -10z"/>
<path d="M4690 7500 c0 -5 5 -10 10 -10 6 0 10 5 10 10 0 6 -4 10 -10 10 -5 0
-10 -4 -10 -10z"/>
<path d="M4610 7340 c0 -5 5 -10 10 -10 6 0 10 5 10 10 0 6 -4 10 -10 10 -5 0
-10 -4 -10 -10z"/>
<path d="M4530 7260 c0 -5 5 -10 10 -10 6 0 10 5 10 10 0 6 -4 10 -10 10 -5 0
-10 -4 -10 -10z"/>
<path d="M4450 7180 c0 -5 5 -10 10 -10 6 0 10 5 10 10 0 6 -4 10 -10 10 -5 0
-10 -4 -10 -10z"/>
<path d="M4370 7100 c0 -5 5 -10 10 -10 6 0 10 5 10 10 0 6 -4 10 -10 10 -5 0
-10 -4 -10 -10z"/>
<path d="M4290 7020 c0 -5 5 -10 10 -10 6 0 10 5 10 10 0 6 -4 10 -10 10 -5 0
-10 -4 -10 -10z"/>
<path d="M4210 6940 c0 -5 5 -10 10 -10 6 0 10 5 10 10 0 6 -4 10 -10 10 -5 0
-10 -4 -10 -10z"/>
<path d="M4130 6860 c0 -5 5 -10 10 -10 6 0 10 5 10 10 0 6 -4 10 -10 10 -5 0
-10 -4 -10 -10z"/>
<path d="M4050 6780 c0 -5 5 -10 10 -10 6 0 10 5 10 10 0 6 -4 10 -10 10 -5 0
-10 -4 -10 -10z"/>
<path d="M3970 6700 c0 -5 5 -10 10 -10 6 0 10 5 10 10 0 6 -4 10 -10 10 -5 0
-10 -4 -10 -10z"/>
<path d="M3890 6620 c0 -5 5 -10 10 -10 6 0 10 5 10 10 0 6 -4 10 -10 10 -5 0
-10 -4 -10 -10z"/>
<path d="M3810 6540 c0 -5 5 -10 10 -10 6 0 10 5 10 10 0 6 -4 10 -10 10 -5 0
-10 -4 -10 -10z"/>
<path d="M3730 6460 c0 -5 5 -10 10 -10 6 0 10 5 10 10 0 6 -4 10 -10 10 -5 0
-10 -4 -10 -10z"/>
<path d="M3650 6380 c0 -5 5 -10 10 -10 6 0 10 5 10 10 0 6 -4 10 -10 10 -5 0
-10 -4 -10 -10z"/>
<path d="M3570 6300 c0 -5 5 -10 10 -10 6 0 10 5 10 10 0 6 -4 10 -10 10 -5 0
-10 -4 -10 -10z"/>
<path d="M3490 6220 c0 -5 5 -10 10 -10 6 0 10 5 10 10 0 6 -4 10 -10 10 -5 0
-10 -4 -10 -10z"/>
<path d="M3410 6140 c0 -5 5 -10 10 -10 6 0 10 5 10 10 0 6 -4 10 -10 10 -5 0
-10 -4 -10 -10z"/>
<path d="M3330 6060 c0 -5 5 -10 10 -10 6 0 10 5 10 10 0 6 -4 10 -10 10 -5 0
-10 -4 -10 -10z"/>
<path d="M2210 4860 c0 -5 5 -10 10 -10 6 0 10 5 10 10 0 6 -4 10 -10 10 -5 0
-10 -4 -10 -10z"/>
<path d="M2023 4614 l-243 -244 0 -895 c0 -590 3 -895 10 -895 6 0 10 -43 10
-110 0 -67 4 -110 10 -110 6 0 10 -27 10 -60 0 -33 4 -60 10 -60 6 0 10 -18
10 -40 0 -22 5 -40 10 -40 6 0 10 -13 10 -30 0 -16 5 -30 10 -30 6 0 10 -13
10 -30 0 -16 5 -30 10 -30 6 0 10 -8 10 -18 0 -10 9 -24 20 -32 11 -8 20 -20
20 -27 0 -17 86 -103 103 -103 7 0 19 -9 27 -20 8 -11 22 -20 32 -20 10 0 18
-4 18 -10 0 -5 14 -10 30 -10 17 0 30 -4 30 -10 0 -5 14 -10 30 -10 17 0 30
-4 30 -10 0 -5 18 -10 40 -10 22 0 40 -4 40 -10 0 -6 33 -10 80 -10 47 0 80
-4 80 -10 0 -6 45 -10 115 -10 110 0 117 -1 140 -25 25 -24 25 -26 25 -210 l0
-185 480 0 480 0 0 220 0 220 -90 0 c-53 0 -90 4 -90 10 0 6 -30 10 -70 10
-40 0 -70 4 -70 10 0 6 -22 10 -50 10 -27 0 -50 5 -50 10 0 6 -13 10 -30 10
-16 0 -30 5 -30 10 0 6 -13 10 -30 10 -16 0 -30 5 -30 10 0 6 -9 10 -20 10
-11 0 -20 5 -20 10 0 6 -7 10 -15 10 -20 0 -185 165 -185 185 0 8 -4 15 -10
15 -5 0 -10 9 -10 20 0 11 -4 20 -10 20 -5 0 -10 9 -10 20 0 11 -4 20 -10 20
-5 0 -10 9 -10 20 0 11 -4 20 -10 20 -5 0 -10 18 -10 40 0 22 -4 40 -10 40 -5
0 -10 18 -10 40 0 22 -4 40 -10 40 -6 0 -10 33 -10 80 0 47 -4 80 -10 80 -7 0
-10 309 -10 906 l0 906 -40 38 c-22 21 -40 44 -40 50 0 6 -18 29 -40 50 -22
21 -40 44 -40 50 0 6 -22 33 -50 60 -27 27 -50 54 -50 60 0 6 -22 33 -50 60
-27 27 -50 54 -50 60 0 7 -13 25 -30 40 -16 15 -30 33 -30 40 0 24 -29 40 -72
39 -43 -1 -45 -3 -285 -245z"/>
<path d="M2130 4780 c0 -5 5 -10 10 -10 6 0 10 5 10 10 0 6 -4 10 -10 10 -5 0
-10 -4 -10 -10z"/>
<path d="M2050 4700 c0 -5 5 -10 10 -10 6 0 10 5 10 10 0 6 -4 10 -10 10 -5 0
-10 -4 -10 -10z"/>
<path d="M1970 4620 c0 -5 5 -10 10 -10 6 0 10 5 10 10 0 6 -4 10 -10 10 -5 0
-10 -4 -10 -10z"/>
<path d="M1890 4540 c0 -5 5 -10 10 -10 6 0 10 5 10 10 0 6 -4 10 -10 10 -5 0
-10 -4 -10 -10z"/>
<path d="M1810 4460 c0 -5 5 -10 10 -10 6 0 10 5 10 10 0 6 -4 10 -10 10 -5 0
-10 -4 -10 -10z"/>
<path d="M1730 4380 c0 -5 5 -10 10 -10 6 0 10 5 10 10 0 6 -4 10 -10 10 -5 0
-10 -4 -10 -10z"/>
</g>
</svg>
